<?xml version="1.0" encoding="utf-8"?>
<!-- Generator: Adobe Illustrator 23.0.3, SVG Export Plug-In . SVG Version: 6.00 Build 0)  -->
<svg version="1.1" id="Layer_1" xmlns="http://www.w3.org/2000/svg" xmlns:xlink="http://www.w3.org/1999/xlink" x="0px" y="0px"
	 viewBox="0 0 84 40" style="enable-background:new 0 0 84 40;" xml:space="preserve">
<style type="text/css">
	.st0{fill:#FFFFFF;}
	.st1{fill:none;stroke:#979797;stroke-width:2;stroke-linecap:round;stroke-miterlimit:10;}
	.st2{fill-rule:evenodd;clip-rule:evenodd;fill:url(#Rectangle-Copy_1_);}
	.st3{fill-rule:evenodd;clip-rule:evenodd;fill:url(#Rectangle-Copy-14_1_);}
	.st4{fill-rule:evenodd;clip-rule:evenodd;fill:#5D5D5D;}
</style>
<title>projector-ceiling</title>
<desc>Created with Sketch.</desc>
<rect x="78.2" y="20.4" class="st0" width="4.8" height="12.3"/>
<g>
	<line class="st1" x1="83" y1="15.8" x2="83" y2="37.2"/>
</g>
<g id="Phase-1">
	<g id="Throw-Calc--New-Design" transform="translate(-256.000000, -1241.000000)">
		<g id="projector-ceiling" transform="translate(256.000000, 1241.000000)">
			
				<linearGradient id="Rectangle-Copy_1_" gradientUnits="userSpaceOnUse" x1="-247.8893" y1="386.2409" x2="-247.8902" y2="385.9928" gradientTransform="matrix(15.9545 0 0 -12.2727 4028.0002 4763.0908)">
				<stop  offset="0" style="stop-color:#2C2C2C"/>
				<stop  offset="0.295" style="stop-color:#3C3F3D"/>
				<stop  offset="1" style="stop-color:#000000"/>
			</linearGradient>
			<rect id="Rectangle-Copy" x="65" y="20.4" class="st2" width="16" height="12.3"/>
			
				<linearGradient id="Rectangle-Copy-14_1_" gradientUnits="userSpaceOnUse" x1="-241.0615" y1="441.9542" x2="-241.0623" y2="441.7737" gradientTransform="matrix(9.797175e-16 16 10.5 -6.429396e-16 -4604.25 3865.25)">
				<stop  offset="0" style="stop-color:#2C2C2C"/>
				<stop  offset="0.295" style="stop-color:#3C3F3D"/>
				<stop  offset="1" style="stop-color:#000000"/>
			</linearGradient>
			<rect id="Rectangle-Copy-14" x="28.8" y="0.2" class="st3" width="10.5" height="16"/>
			<path id="Rectangle-Copy-2" class="st4" d="M1,13h66.7c0.6,0,1,0.4,1,1v25c0,0.6-0.4,1-1,1H1c-0.6,0-1-0.4-1-1V14
				C0,13.4,0.4,13,1,13z"/>
		</g>
	</g>
</g>
</svg>
